<svg id="Group_42" data-name="Group 42" xmlns="http://www.w3.org/2000/svg" xmlns:xlink="http://www.w3.org/1999/xlink" width="429.178" height="457.237" viewBox="0 0 429.178 457.237">
  <defs>
    <clipPath id="clip-path">
      <rect id="Rectangle_17" data-name="Rectangle 17" width="429.178" height="457.237" fill="none"/>
    </clipPath>
    <clipPath id="clip-path-5">
      <rect id="Rectangle_3" data-name="Rectangle 3" width="39.27" height="39.759" transform="translate(371.1 279.801)" fill="none"/>
    </clipPath>
    <clipPath id="clip-path-7">
      <rect id="Rectangle_5" data-name="Rectangle 5" width="186.2" height="107.507" transform="translate(60.545)" fill="none"/>
    </clipPath>
    <clipPath id="clip-path-8">
      <rect id="Rectangle_6" data-name="Rectangle 6" width="9.91" height="289.714" transform="translate(59.915 102.817)" fill="none"/>
    </clipPath>
    <clipPath id="clip-path-9">
      <rect id="Rectangle_7" data-name="Rectangle 7" width="8.118" height="15.37" transform="translate(116.785 93.227)" fill="none"/>
    </clipPath>
    <clipPath id="clip-path-10">
      <rect id="Rectangle_8" data-name="Rectangle 8" width="11.444" height="13.168" transform="translate(125.646 70.526)" fill="none"/>
    </clipPath>
    <clipPath id="clip-path-11">
      <rect id="Rectangle_9" data-name="Rectangle 9" width="12.183" height="25.27" transform="translate(139.579 39.662)" fill="none"/>
    </clipPath>
    <clipPath id="clip-path-12">
      <rect id="Rectangle_10" data-name="Rectangle 10" width="12.697" height="16.596" transform="translate(112.207 122.225)" fill="none"/>
    </clipPath>
    <clipPath id="clip-path-13">
      <rect id="Rectangle_11" data-name="Rectangle 11" width="13.056" height="28.135" transform="translate(140.282 79.011)" fill="none"/>
    </clipPath>
    <clipPath id="clip-path-14">
      <rect id="Rectangle_12" data-name="Rectangle 12" width="13.653" height="23.61" transform="translate(153.744 48.358)" fill="none"/>
    </clipPath>
    <clipPath id="clip-path-16">
      <rect id="Rectangle_15" data-name="Rectangle 15" width="13.315" height="205.145" transform="translate(310.317 133.034)" fill="none"/>
    </clipPath>
  </defs>
  <g id="Group_41" data-name="Group 41" clip-path="url(#clip-path)">
    <g id="Group_2" data-name="Group 2">
      <g id="Group_1" data-name="Group 1" clip-path="url(#clip-path)">
        <path id="Path_1" data-name="Path 1" d="M72.288,423.517c81.644,44.96,214.015,44.961,295.657,0s81.644-117.855,0-162.814-214.015-44.961-295.658,0-81.643,117.855,0,162.815" fill="#f5f5f5"/>
      </g>
    </g>
    <g id="Group_4" data-name="Group 4">
      <g id="Group_3" data-name="Group 3" clip-path="url(#clip-path)">
        <path id="Path_2" data-name="Path 2" d="M55.622,391.8l6.124,3.536a6.7,6.7,0,0,0,6.062,0L248.6,290.952c1.674-.967,1.674-2.534,0-3.5l-6.124-3.536a6.7,6.7,0,0,0-6.062,0L55.622,388.3c-1.674.967-1.674,2.534,0,3.5" fill="#e0e0e0"/>
        <path id="Path_3" data-name="Path 3" d="M321.155,362.136c17.689,9.241,46.368,9.241,64.057,0s17.688-24.223,0-33.464-46.369-9.24-64.057,0-17.689,24.223,0,33.464" fill="#e0e0e0"/>
        <path id="Path_4" data-name="Path 4" d="M299.436,343.486c5.322,2.781,13.95,2.781,19.272,0s5.322-7.287,0-10.067-13.95-2.781-19.272,0-5.322,7.287,0,10.067" fill="#e0e0e0"/>
      </g>
    </g>
    <g id="Group_9" data-name="Group 9">
      <g id="Group_8" data-name="Group 8" clip-path="url(#clip-path)">
        <path id="Path_5" data-name="Path 5" d="M63.116,344.775c.241-8.878-2.227-23.77-10.977-38.633-9.362-15.9-21.72-26.561-32.1-23.322-9.673,3.017-7.545,16.145,7,30.44,10.2,10.031,20.535,22.763,25.255,37.3L60.468,369.3Z" fill="#27debf"/>
        <path id="Path_6" data-name="Path 6" d="M63.116,344.775c.241-8.878-2.227-23.77-10.977-38.633-9.362-15.9-21.72-26.561-32.1-23.322-9.673,3.017-7.545,16.145,7,30.44,10.2,10.031,20.535,22.763,25.255,37.3L60.468,369.3Z" fill="#37474f"/>
        <path id="Path_7" data-name="Path 7" d="M61.5,351.387a.629.629,0,0,1-.543-.475c-6.23-25.359-22.019-52.043-36.729-62.068a.629.629,0,1,1,.708-1.041c14.938,10.182,30.948,37.183,37.242,62.808a.63.63,0,0,1-.678.776" fill="#fff"/>
        <path id="Path_8" data-name="Path 8" d="M63.2,373.528a37.421,37.421,0,0,1-17.277,8.65c-11.066,2.435-16.314-2.613-16.314-2.613s3.774-10.739,9.942-14.057c0,0-10.624,2.834-18.913,9.108,0,0-6.815.511-10.151-9.738,0,0,3.668-6.506,17.026-10.7,0,0-8.373-1.584-20.081,2.157-.87.408-5.473-12.826-6.993-18.968s.98-6.225,5.744-7.806,21.2-3.377,24.392-.9,5.272,11.5,5.272,11.5,2.591-5.325,1.623-9.882a17.341,17.341,0,0,1,10.315-.368c5.551,1.572,5.364,4.243,5.6,8.2a41.962,41.962,0,0,1-.927,11.882s3.562-3.474,2.98-15.461c0,0,7.726,5.852,11,11.083s3.37,19.421-3.238,27.913" fill="#455a64"/>
        <path id="Path_9" data-name="Path 9" d="M63.241,374.155a.63.63,0,0,1-.587-.322c-10.131-18.19-44.943-37.954-57.087-39.572a.63.63,0,1,1,.167-1.249c12.344,1.646,47.728,21.728,58.019,40.209a.628.628,0,0,1-.243.855.618.618,0,0,1-.269.079" fill="#fff"/>
        <path id="Path_10" data-name="Path 10" d="M371.1,317.448s1.385-12.183,7.446-21.639,14.387-15.357,22.157-15.972,14.045,6.535,5.731,11.444-23.083,9.918-29.88,28.278Z" fill="#27debf"/>
        <g id="Group_7" data-name="Group 7" opacity="0.1">
          <g id="Group_6" data-name="Group 6">
            <g id="Group_5" data-name="Group 5" clip-path="url(#clip-path-5)">
              <path id="Path_11" data-name="Path 11" d="M371.1,317.448s1.385-12.183,7.446-21.639,14.387-15.357,22.157-15.972,14.045,6.535,5.731,11.444-23.083,9.918-29.88,28.278Z"/>
            </g>
          </g>
        </g>
        <path id="Path_12" data-name="Path 12" d="M373.378,314.284a.371.371,0,0,1-.082-.024.413.413,0,0,1-.229-.541c8.2-20.192,23.808-28.624,30.917-30.261a.415.415,0,0,1,.187.809c-6.964,1.6-22.265,9.889-30.336,29.765a.414.414,0,0,1-.457.252" fill="#fff"/>
        <path id="Path_13" data-name="Path 13" d="M414.882,314.523c-.7,1.586-2.436,2.412-4.047,3.061s-3.359,1.345-4.229,2.845c-1.754,3.029,1.125,7.288-.758,10.238a5.424,5.424,0,0,1-3.7,2.147,35.9,35.9,0,0,1-3.639.325,14.694,14.694,0,0,1-1.731-.134,7.86,7.86,0,0,0-5.012.534c-2.407,1.353-3.147,4.393-4.609,6.737a11.432,11.432,0,0,1-8.109,5.087c-1.082.143-3.1.338-4.2-.277a1.89,1.89,0,0,1-.227-.145c-.008,0-.014-.01-.02-.02-.152-.17-.342-.388-.424-.506a.212.212,0,0,1-.042-.071c-.427-1.571.27-3.206.3-4.828a2.866,2.866,0,0,0,0-.294c-.067-1.886-.12-3.762-.164-5.643q-.132-5.193-.1-10.4c.024-2.25-.248-4.713.705-6.833,1.054-2.331,3.676-2.383,4.667-4.67.4-.912.608-1.889.991-2.811a8.06,8.06,0,0,1,6.864-4.792c4.577-.233,8.684,3.474,13.256,3.137a34.548,34.548,0,0,0,3.5-.668c3.707-.694,7.992.361,10.076,3.5a4.8,4.8,0,0,1,.657,4.479" fill="#27debf"/>
        <path id="Path_14" data-name="Path 14" d="M373.759,337.134l-.031-.007a.39.39,0,0,1-.276-.478c6.323-23.726,31.322-27.155,37.171-26.733a.391.391,0,0,1-.056.779c-5.721-.413-30.174,2.942-36.361,26.156a.391.391,0,0,1-.447.283" fill="#fff"/>
        <path id="Path_15" data-name="Path 15" d="M401.535,325.112a.385.385,0,0,1-.206-.109,20.778,20.778,0,0,0-17.013-4.792.391.391,0,0,1-.114-.773,21.577,21.577,0,0,1,17.682,5.015.391.391,0,0,1-.349.659" fill="#fff"/>
      </g>
    </g>
    <g id="Group_35" data-name="Group 35">
      <g id="Group_34" data-name="Group 34" clip-path="url(#clip-path)">
        <path id="Path_16" data-name="Path 16" d="M65.875,392.015l-3.794-2.19a4.787,4.787,0,0,1-2.165-3.75l0-281.118a4.79,4.79,0,0,1,2.165-3.75L236.479.518a4.781,4.781,0,0,1,4.33,0L244.6,2.709a4.784,4.784,0,0,1,2.165,3.75V287.576a4.787,4.787,0,0,1-2.165,3.75L70.205,392.015a4.788,4.788,0,0,1-4.33,0" fill="#27debf"/>
        <g id="Group_12" data-name="Group 12" opacity="0.4">
          <g id="Group_11" data-name="Group 11">
            <g id="Group_10" data-name="Group 10" clip-path="url(#clip-path-7)">
              <path id="Path_17" data-name="Path 17" d="M246.745,6.108c-.15-1.12-1.06-1.53-2.14-.9L70.205,105.9a4.4,4.4,0,0,0-1.53,1.61l-8.13-4.69a4.481,4.481,0,0,1,1.53-1.61L236.475.518a4.787,4.787,0,0,1,4.33,0l3.8,2.19a4.851,4.851,0,0,1,2.14,3.4" fill="#fff"/>
            </g>
          </g>
        </g>
        <g id="Group_15" data-name="Group 15" opacity="0.15">
          <g id="Group_14" data-name="Group 14">
            <g id="Group_13" data-name="Group 13" clip-path="url(#clip-path-8)">
              <path id="Path_18" data-name="Path 18" d="M69.825,392.187a.35.35,0,0,1-.13.05,1.426,1.426,0,0,1-.22.08l-.09.03c-.13.04-.26.07-.4.1h-.05a4.881,4.881,0,0,1-2.58-.21,3.51,3.51,0,0,1-.48-.22l-3.8-2.19a4.812,4.812,0,0,1-2.16-3.75V104.957a4.466,4.466,0,0,1,.63-2.14l8.13,4.69a4.375,4.375,0,0,0-.64,2.14v281.12a1.8,1.8,0,0,0,.33,1.14,1.131,1.131,0,0,0,1.16.37,1.714,1.714,0,0,0,.3-.09"/>
            </g>
          </g>
        </g>
        <path id="Path_19" data-name="Path 19" d="M192.295,52.277c-.1-.06-.21-.12-.32-.19l-3.6-2.07a13.506,13.506,0,0,0-4.2-1.49c-.62-.14-1.18-.3-1.67-.46a13.039,13.039,0,0,1-1.59-.65l.27-.33v-.01l-4.07-2.35v.01a4.128,4.128,0,0,0-1.07-.43c-1.53-.37-3.82.52-6.11.26a5.74,5.74,0,0,1-4.15-2.47c-1.39-1.87-2.23-5.15-3.46-7.86l1.07-1.58a3.718,3.718,0,0,0-.34-.19l-3.73-2.16a4.061,4.061,0,0,0-2.08-.56,7.969,7.969,0,0,0-3.91,1.27c-8.93,5.16-9.23,17.41-12.45,25.46-3.22,8.07-7.77,10.58-10.25,14.05-2.5,3.46-2.65,6.03-8.14,13.6s-5.71,9.42-5.71,10.85v11.28l4.06,2.34,73.09-42.21Zm-67.02,43.47c-.95.54-1.73-.19-1.73-1.66a4.589,4.589,0,0,1,1.73-3.66c.95-.55,1.72.2,1.72,1.67a4.561,4.561,0,0,1-1.72,3.65m32.11-31.65c-2.4,1.39-4.5.6-5.63-1.72-2.83.55-4.94-2.19-4.94-6.89,0-5.54,2.92-11.71,6.52-13.79a3.671,3.671,0,0,1,5.62,1.72c2.84-.56,4.94,2.17,4.94,6.89,0,5.54-2.91,11.71-6.51,13.79m24.27-.91c-.95.55-1.72-.19-1.72-1.65a4.546,4.546,0,0,1,1.72-3.65c.96-.55,1.73.19,1.73,1.66a4.518,4.518,0,0,1-1.73,3.64" fill="#455a64"/>
        <g id="Group_18" data-name="Group 18" opacity="0.5">
          <g id="Group_17" data-name="Group 17">
            <g id="Group_16" data-name="Group 16" clip-path="url(#clip-path-9)">
              <path id="Path_20" data-name="Path 20" d="M124.9,97.765l-7.86-4.538a5.543,5.543,0,0,0-.259,1.75v11.28l4.06,2.34,4.059-2.343Z" fill="#37474f"/>
            </g>
          </g>
        </g>
        <g id="Group_21" data-name="Group 21" opacity="0.5">
          <g id="Group_20" data-name="Group 20">
            <g id="Group_19" data-name="Group 19" clip-path="url(#clip-path-10)">
              <path id="Path_21" data-name="Path 21" d="M133.028,83.694l4.062-9.381-6.455-3.787h0c-1.9,2.623-2.444,4.739-4.988,8.9Z" fill="#37474f"/>
            </g>
          </g>
        </g>
        <g id="Group_24" data-name="Group 24" opacity="0.5">
          <g id="Group_23" data-name="Group 23">
            <g id="Group_22" data-name="Group 22" clip-path="url(#clip-path-11)">
              <path id="Path_22" data-name="Path 22" d="M149.276,64.932,149.8,62.2c-1.8-.752-2.989-3.177-2.989-6.711,0-4.7,2.109-9.853,4.948-12.577l-5.63-3.248c-2.4,5.466-3.288,11.915-5.248,16.815a30.951,30.951,0,0,1-1.306,2.855Z" fill="#37474f"/>
            </g>
          </g>
        </g>
        <path id="Path_23" data-name="Path 23" d="M192.295,52.277c-.1-.06-.21-.12-.32-.19a16.04,16.04,0,0,0-3.75-1.22,11.733,11.733,0,0,1-5.72-2.8,8.336,8.336,0,0,0-1.32-.98,3.827,3.827,0,0,0-1.09-.44c-2.46-.59-6.94,2.09-10.16-2.08l-.1-.13c-2.25-3.03-3.07-9.79-6.44-11.78a3.718,3.718,0,0,0-.34-.19c-1.39-.65-3.2-.53-5.67.89-8.93,5.16-9.23,17.41-12.45,25.46-3.22,8.07-7.77,10.58-10.25,14.05-2.5,3.46-2.64,6.03-8.14,13.6s-5.7,9.42-5.7,10.85V108.6l73.09-42.21V55.117a2.846,2.846,0,0,0-1.64-2.84m-62.97,45.81c-.95.55-1.72-.19-1.72-1.66a4.582,4.582,0,0,1,1.72-3.66c.96-.55,1.72.2,1.72,1.67a4.532,4.532,0,0,1-1.72,3.65m28.06-33.99c-2.4,1.39-4.5.6-5.63-1.72a10.4,10.4,0,0,1-.89-4.55c0-5.54,2.92-11.71,6.52-13.79a5.279,5.279,0,0,1,1.57-.62c2.84-.56,4.94,2.17,4.94,6.89,0,5.54-2.91,11.71-6.51,13.79m28.33,1.43c-.96.55-1.73-.19-1.73-1.65a4.524,4.524,0,0,1,1.73-3.65c.95-.55,1.72.19,1.72,1.66a4.541,4.541,0,0,1-1.72,3.64" fill="#37474f"/>
        <path id="Path_24" data-name="Path 24" d="M163.9,50.307c0,5.541-2.91,11.711-6.51,13.791-2.4,1.39-4.5.6-5.63-1.72a5.1,5.1,0,0,0,1.58-.62c3.6-2.08,6.51-8.25,6.51-13.791a10.4,10.4,0,0,0-.89-4.549c2.84-.56,4.94,2.17,4.94,6.889" fill="#263238"/>
        <path id="Path_25" data-name="Path 25" d="M129.328,98.083c-.952.55-1.728-.189-1.728-1.653a4.57,4.57,0,0,1,1.728-3.659c.952-.55,1.722.2,1.722,1.667a4.539,4.539,0,0,1-1.722,3.645" fill="#263238"/>
        <path id="Path_26" data-name="Path 26" d="M185.71,65.534c-.952.551-1.728-.189-1.728-1.652a4.567,4.567,0,0,1,1.728-3.659c.952-.551,1.722.2,1.722,1.666a4.537,4.537,0,0,1-1.722,3.645" fill="#263238"/>
        <path id="Path_27" data-name="Path 27" d="M81.52,132.194,233.28,44.576a2.871,2.871,0,0,1,2.6,0l1.463.844a2.873,2.873,0,0,1,1.3,2.25V279.193a2.87,2.87,0,0,1-1.3,2.25L85.585,369.062a2.872,2.872,0,0,1-2.6,0l-1.467-.847a2.874,2.874,0,0,1-1.3-2.25V134.444a2.873,2.873,0,0,1,1.3-2.25" fill="#f5f5f5"/>
        <path id="Path_28" data-name="Path 28" d="M238.6,47.277c-.16-.53-.66-.7-1.25-.36l-151.76,87.62a2.609,2.609,0,0,0-.92.97l-4.06-2.34a2.536,2.536,0,0,1,.92-.97l151.76-87.62a2.819,2.819,0,0,1,2.59,0l1.47.84a2.881,2.881,0,0,1,1.25,1.86" fill="#fafafa"/>
        <path id="Path_29" data-name="Path 29" d="M85.275,369.2a2.417,2.417,0,0,1-.48.13l-.25.03a3.484,3.484,0,0,1-.79-.03,2.417,2.417,0,0,1-.48-.13,2.589,2.589,0,0,1-.29-.14l-1.46-.84a2.872,2.872,0,0,1-1.3-2.25V134.447a2.563,2.563,0,0,1,.38-1.28l4.06,2.34a2.733,2.733,0,0,0-.38,1.28v231.52c0,.71.42,1.06.99.89" fill="#e0e0e0"/>
        <path id="Path_30" data-name="Path 30" d="M204.455,77.367l-4.04-2.34a4.386,4.386,0,0,0-4.06.12c-4.72,2.08-6.76,3.02-9.2,4.04-.56.23-1.13.46-1.76.71-.95.38-2.86.06-2.27-3.27l6.27-16.89c-.03-.02-.06-.03-.09-.05l-3.97-2.3a1.774,1.774,0,0,0-.66-.23,2.872,2.872,0,0,0-.44-.04c-2.57-.06-3.3-16.62-3.32-17.13v-.01l-.18-.1-3.93-2.26a4.39,4.39,0,0,0-2.24-.57,8.218,8.218,0,0,0-3.72,1.05c-6.17,3.24-12.4,12.84-13.92,21.46-.96,5.44-6.43,13.81-9.59,16.89-3.17,3.1-3.38,5.66-3.38,5.66l-2.46,13.94-.79,4.46c-.58,3.33-3.99,6.55-3.99,6.55l-12.73,9.54c-7.97,6.62-10.22,13.3-11.75,21.57,0,.01-.01.05-.01.06-.05.29.01.49.14.57a.142.142,0,0,0,.14.01v-.01c.01.01.01.01.02,0l1.63-.93,87.58-50.51a1.924,1.924,0,0,0,.8-1.22c.01-.01.01-.03.02-.04s-.01-.02,0-.03c.5-3.02,1.96-8.67,1.96-8.67l-.06-.03m-25.32-25.59c-.94,5.3-4.76,11.21-8.56,13.2-2.62,1.37-4.53.52-5.17-1.89a3,3,0,0,1-2.87-.37c-1.22-.96,9.94-20.11,10.85-19.69a3.24,3.24,0,0,1,1.68,2.29c3.13-.95,4.91,1.7,4.07,6.46" fill="#455a64"/>
        <g id="Group_27" data-name="Group 27" opacity="0.5">
          <g id="Group_26" data-name="Group 26">
            <g id="Group_25" data-name="Group 25" clip-path="url(#clip-path-12)">
              <path id="Path_31" data-name="Path 31" d="M124.9,125.908l-6.379-3.683c-3.705,4.872-5.19,10-6.291,15.943,0,.01-.01.05-.01.06-.05.29.01.49.14.57a.142.142,0,0,0,.14.01v-.01c.01.01.01.01.02,0l.018-.01,5.034-3.988Z" fill="#37474f"/>
            </g>
          </g>
        </g>
        <g id="Group_30" data-name="Group 30" opacity="0.5">
          <g id="Group_29" data-name="Group 29">
            <g id="Group_28" data-name="Group 28" clip-path="url(#clip-path-13)">
              <path id="Path_32" data-name="Path 32" d="M140.282,101.953l8.995,5.193,4.061-23.452-8.111-4.684a7.663,7.663,0,0,0-1.272,3.1l-2.46,13.94-.79,4.46a7.45,7.45,0,0,1-.423,1.446" fill="#37474f"/>
            </g>
          </g>
        </g>
        <g id="Group_33" data-name="Group 33" opacity="0.5">
          <g id="Group_32" data-name="Group 32">
            <g id="Group_31" data-name="Group 31" clip-path="url(#clip-path-14)">
              <path id="Path_33" data-name="Path 33" d="M161.19,48.358a34.906,34.906,0,0,0-4.265,11.2,27.867,27.867,0,0,1-3.181,7.955l7.718,4.455,3.836-8.858a2.954,2.954,0,0,1-2.763-.392c-.628-.493,2.019-5.795,4.862-10.776Z" fill="#37474f"/>
            </g>
          </g>
        </g>
        <path id="Path_34" data-name="Path 34" d="M204.515,77.4l-.06-.03a4.41,4.41,0,0,0-4.04.13c-5.79,2.55-7.54,3.39-10.97,4.75-.92.37-2.77.07-2.29-3.06a1.518,1.518,0,0,1,.03-.21l.79-4.46,2.19-12.15s.5-1.91-.77-2.63c-.03-.02-.06-.03-.09-.05a2.362,2.362,0,0,0-1.01-.22,4.94,4.94,0,0,1-3.62-2.31,9.13,9.13,0,0,1-1.36-6.95c.92-5.21-.09-8.86-2.4-10.22a1.74,1.74,0,0,0-.18-.11c-1.49-.79-3.49-.66-5.83.57-6.17,3.24-12.4,12.84-13.92,21.46-.96,5.44-6.43,13.81-9.59,16.89-3.17,3.1-3.38,5.66-3.38,5.66l-2.46,13.94-.79,4.46c-.58,3.33-4,6.55-4,6.55l-12.72,9.54a30.685,30.685,0,0,0-10.47,15.85s-4.77,3.7-5.07,4v.01c-.01.01-.01.01.01,0l.01-.01,1.63-.93,87.83-50.49s1.01-.55,1.23-.69,3.76-3.48,3.76-3.48c-.15-2.88-.99-4.93-2.46-5.81m-25.38-25.62c-.94,5.3-4.76,11.21-8.56,13.2-2.62,1.37-4.53.52-5.17-1.89a10.034,10.034,0,0,1-.01-4.11c.94-5.3,4.77-11.21,8.57-13.19a6.723,6.723,0,0,1,1.1-.47c3.13-.95,4.91,1.7,4.07,6.46" fill="#37474f"/>
        <path id="Path_35" data-name="Path 35" d="M179.135,51.777c-.94,5.3-4.76,11.21-8.56,13.2-2.62,1.37-4.53.52-5.17-1.89a7.093,7.093,0,0,0,1.11-.46c3.8-1.99,7.63-7.9,8.56-13.2a9.862,9.862,0,0,0-.01-4.11c3.13-.95,4.91,1.7,4.07,6.46" fill="#263238"/>
        <path id="Path_36" data-name="Path 36" d="M175.47,45.546h0a2.078,2.078,0,0,1,1.831.886c1.575,2.235.067,7.94-.585,9.762-.909,2.538-6.8,8.489-8.423,8.488a3.965,3.965,0,0,1-2.656-1.7,9.938,9.938,0,0,1,0-3.962c.928-5.234,4.714-11.071,8.441-13.012a6.454,6.454,0,0,1,1.034-.445c.122-.012.241-.018.354-.018m0-.25q-.193,0-.4.021a6.723,6.723,0,0,0-1.1.47c-3.8,1.98-7.63,7.89-8.57,13.19a10.034,10.034,0,0,0,.01,4.11,4.257,4.257,0,0,0,2.877,1.845h.034c1.759,0,7.685-6,8.635-8.655.929-2.6,3-10.982-1.481-10.982" fill="#263238"/>
        <path id="Path_37" data-name="Path 37" d="M112.516,138.809l89.465-51.43s1.014-.554,1.232-.687,3.76-3.487,3.76-3.487l-89.4,51.6s-5.416,4.195-5.06,4.009" fill="#263238"/>
        <path id="Path_38" data-name="Path 38" d="M96.642,162.2l24.2-14.172,0,28.144-24.2,14.17Z" fill="#fafafa"/>
        <path id="Path_39" data-name="Path 39" d="M97.642,162.771V188.6l22.2-13,0-25.826Zm-1,28.569a1,1,0,0,1-1-1V162.2a1,1,0,0,1,.5-.862l24.2-14.173a1,1,0,0,1,1.505.863l0,28.144a1,1,0,0,1-.5.863L97.147,191.2a1,1,0,0,1-.505.137" fill="#455a64"/>
        <path id="Path_40" data-name="Path 40" d="M133.028,141.979v2.036c0,1.1.776,1.552,1.732,1l85.9-49.588a3.826,3.826,0,0,0,1.732-3V90.385c0-1.105-.775-1.552-1.732-1l-85.9,49.594a3.829,3.829,0,0,0-1.732,3" fill="#e0e0e0"/>
        <path id="Path_41" data-name="Path 41" d="M133.028,154.271v2.035c0,1.1.776,1.553,1.732,1l85.9-49.587a3.828,3.828,0,0,0,1.732-3v-2.043c0-1.1-.775-1.552-1.732-1l-85.9,49.594a3.83,3.83,0,0,0-1.732,3" fill="#e0e0e0"/>
        <path id="Path_42" data-name="Path 42" d="M133.028,166.5v2.035c0,1.1.776,1.553,1.732,1l85.9-49.588a3.826,3.826,0,0,0,1.732-3V114.9c0-1.105-.775-1.553-1.732-1L134.76,163.5a3.829,3.829,0,0,0-1.732,3" fill="#e0e0e0"/>
        <path id="Path_43" data-name="Path 43" d="M109.149,176.584l-5.63-5.417,2.424-5.132,3.206,3.084,13.33-28.219,2.424,2.333Z" fill="#27debf"/>
        <path id="Path_44" data-name="Path 44" d="M96.642,213.793l24.2-14.172,0,28.144-24.2,14.171Z" fill="#fafafa"/>
        <path id="Path_45" data-name="Path 45" d="M97.642,214.367v25.824l22.2-13,0-25.826Zm-1,28.569a1,1,0,0,1-1-1V213.793a1,1,0,0,1,.5-.862l24.2-14.173a1,1,0,0,1,1.505.863l0,28.144a1,1,0,0,1-.5.863L97.147,242.8a1,1,0,0,1-.505.137" fill="#455a64"/>
        <path id="Path_46" data-name="Path 46" d="M133.028,193.575v2.035c0,1.1.776,1.553,1.732,1l85.9-49.588a3.826,3.826,0,0,0,1.732-3v-2.042c0-1.1-.775-1.552-1.732-1l-85.9,49.594a3.829,3.829,0,0,0-1.732,3" fill="#e0e0e0"/>
        <path id="Path_47" data-name="Path 47" d="M133.028,205.868V207.9c0,1.1.776,1.553,1.732,1l85.9-49.588a3.826,3.826,0,0,0,1.732-3v-2.042c0-1.1-.775-1.552-1.732-1l-85.9,49.594a3.829,3.829,0,0,0-1.732,3" fill="#e0e0e0"/>
        <path id="Path_48" data-name="Path 48" d="M133.028,218.092v2.036c0,1.1.776,1.552,1.732,1l85.9-49.588a3.826,3.826,0,0,0,1.732-3V166.5c0-1.1-.775-1.552-1.732-1l-85.9,49.594a3.83,3.83,0,0,0-1.732,3" fill="#e0e0e0"/>
        <path id="Path_49" data-name="Path 49" d="M109.149,228.18l-5.63-5.417,2.424-5.132,3.206,3.084,13.33-28.219,2.424,2.333Z" fill="#27debf"/>
        <path id="Path_50" data-name="Path 50" d="M96.642,265.389l24.2-14.172,0,28.144-24.2,14.171Z" fill="#fafafa"/>
        <path id="Path_51" data-name="Path 51" d="M97.642,265.963v25.824l22.2-13,0-25.826Zm-1,28.569a1,1,0,0,1-1-1V265.389a1,1,0,0,1,.5-.862l24.2-14.173a1,1,0,0,1,1.505.863l0,28.144a1,1,0,0,1-.5.863l-24.2,14.171a1,1,0,0,1-.505.137" fill="#455a64"/>
        <path id="Path_52" data-name="Path 52" d="M133.028,245.172v2.036c0,1.1.776,1.552,1.732,1l85.9-49.588a3.826,3.826,0,0,0,1.732-3v-2.042c0-1.1-.775-1.552-1.732-1l-85.9,49.594a3.83,3.83,0,0,0-1.732,3" fill="#e0e0e0"/>
        <path id="Path_53" data-name="Path 53" d="M133.028,257.464V259.5c0,1.1.776,1.552,1.732,1l85.9-49.588a3.826,3.826,0,0,0,1.732-3V205.87c0-1.1-.775-1.552-1.732-1l-85.9,49.594a3.829,3.829,0,0,0-1.732,3" fill="#e0e0e0"/>
        <path id="Path_54" data-name="Path 54" d="M133.028,269.689v2.035c0,1.105.776,1.553,1.732,1l85.9-49.588a3.826,3.826,0,0,0,1.732-3V218.1c0-1.1-.775-1.552-1.732-1l-85.9,49.594a3.829,3.829,0,0,0-1.732,3" fill="#e0e0e0"/>
        <path id="Path_55" data-name="Path 55" d="M96.642,316.986l24.2-14.172,0,28.144-24.2,14.171Z" fill="#fafafa"/>
        <path id="Path_56" data-name="Path 56" d="M97.642,317.559v25.824l22.2-13,0-25.826Zm-1,28.569a1,1,0,0,1-1-1V316.985a1,1,0,0,1,.5-.862l24.2-14.173a1,1,0,0,1,1.505.863l0,28.144a1,1,0,0,1-.5.863l-24.2,14.171a1,1,0,0,1-.505.137" fill="#455a64"/>
        <path id="Path_57" data-name="Path 57" d="M133.028,296.768V298.8c0,1.1.776,1.553,1.732,1l85.9-49.588a3.826,3.826,0,0,0,1.732-3v-2.042c0-1.1-.775-1.552-1.732-1l-85.9,49.594a3.829,3.829,0,0,0-1.732,3" fill="#e0e0e0"/>
        <path id="Path_58" data-name="Path 58" d="M133.028,309.061V311.1c0,1.1.776,1.553,1.732,1l85.9-49.588a3.826,3.826,0,0,0,1.732-3v-2.042c0-1.105-.775-1.552-1.732-1l-85.9,49.594a3.829,3.829,0,0,0-1.732,3" fill="#e0e0e0"/>
        <path id="Path_59" data-name="Path 59" d="M133.028,321.285v2.036c0,1.1.776,1.552,1.732,1l85.9-49.588a3.826,3.826,0,0,0,1.732-3v-2.042c0-1.105-.775-1.552-1.732-1l-85.9,49.594a3.829,3.829,0,0,0-1.732,3" fill="#e0e0e0"/>
      </g>
    </g>
    <g id="Group_40" data-name="Group 40">
      <g id="Group_39" data-name="Group 39" clip-path="url(#clip-path)">
        <path id="Path_60" data-name="Path 60" d="M360,148.328a10.846,10.846,0,1,1-10.846-10.846A10.846,10.846,0,0,1,360,148.328" fill="#263238"/>
        <path id="Path_61" data-name="Path 61" d="M336.245,182.194l-15.476,18.041-20.789-9.019-.409,11.257s17.027,7.954,19.639,8.492,5.142,1.12,7.429-.628c2.661-2.034,12.21-13.061,12.21-13.061Z" fill="#ffa8a7"/>
        <path id="Path_62" data-name="Path 62" d="M350.3,172.959c-6.168-.4-11.056,4.287-14.624,8.483s-8.191,10.8-8.191,10.8,2.491,7.268,9.053,9.47l11.3-13.437Z" fill="#e0e0e0"/>
        <rect id="Rectangle_14" data-name="Rectangle 14" width="7.64" height="13.079" transform="translate(367.491 331.85)" fill="#ffa8a7"/>
        <path id="Path_63" data-name="Path 63" d="M348.643,335.778l-7.635.262-.383-13.84,7.636-.263Z" fill="#ffa8a7"/>
        <path id="Path_64" data-name="Path 64" d="M374.63,228.176c0,7.3.943,51.507.943,51.507.178,2.1,2.147,5.969,1.721,14.032-.579,10.952-1.526,39.425-1.526,39.425s-3.582,3.551-8.64,0c0,0-6.917-39.387-8.287-50.242-1.194-9.472-3.221-35.207-3.221-35.207l-4.238,35.718s1.246,7.12,1.52,12.146-4.138,30.533-4.138,30.533a8.345,8.345,0,0,1-8.314.316s-3.3-38.89-4.083-43.429,2.53-54.8,2.53-54.8Z" fill="#37474f"/>
        <path id="Path_65" data-name="Path 65" d="M367.29,175.4A8.355,8.355,0,0,1,374,181.816a26.919,26.919,0,0,1,.628,5.8v40.56c-5.358,5.828-24.035,8.544-35.733,0,0,0,.229-35.826,1.105-41.712,1.522-10.225,6.418-13.872,11.334-13.491l11.792,1.687Z" fill="#f0f0f0"/>
        <path id="Path_66" data-name="Path 66" d="M367.907,156.039s-1.757,8.258-2.462,9.615a3.741,3.741,0,0,1-2.162,1.742l.123-5.809Z" fill="#263238"/>
        <path id="Path_67" data-name="Path 67" d="M365.7,144.21a4.07,4.07,0,0,1,3.368,1.184c1.447,1.48.639,6.11-1.162,10.645l-3.311.38Z" fill="#263238"/>
        <path id="Path_68" data-name="Path 68" d="M363.6,156.422c.664.4,1.611-.879,2.43-1.735s3.491-2.027,4.824.782c1.358,2.862-1.177,6.645-3.281,7.305-3.626,1.139-4.17-1.187-4.17-1.187l-.277,13.079a11.669,11.669,0,0,1-8.8,6.68c-6.429.872-5.1-4.428-2.994-7.026l.01-3.981a22.842,22.842,0,0,1-4.888.251c-2.666-.412-4.344-2.516-5.153-5.4-1.3-4.636-1.793-8.38-.69-17.5,1.208-9.994,12.832-10.1,19.109-6.147s3.883,14.878,3.883,14.878" fill="#ffa8a7"/>
        <path id="Path_69" data-name="Path 69" d="M363.6,157.539c.334.006,1.6-2.1,2.43-2.852,1.145-1.042-.332-10.477-.332-10.477a4.468,4.468,0,0,0-1.1-4.772c-1.569-1.726-4.19-1.918-8.666-2.621-2.349-.369-5.908-1.027-8.253-1.463-2.8-.52-5.118-1.071-7.1.647a4.969,4.969,0,0,0-1.373,5.563,5.17,5.17,0,0,0,2.81,2.575s1.221,1.083,5.469,1.6a62.766,62.766,0,0,0,11.768-.223c1.231-.168,1.494,1.025,2.158,4.286.583,2.863,1.067,7.715,2.189,7.737" fill="#263238"/>
        <path id="Path_70" data-name="Path 70" d="M365.694,144.944l4.014-2.155a2.213,2.213,0,0,0-3.039-1.005,2.394,2.394,0,0,0-.975,3.16" fill="#263238"/>
        <path id="Path_71" data-name="Path 71" d="M351.342,170.34s5.952-1.2,8.033-2.3a6.86,6.86,0,0,0,2.877-2.847,9.382,9.382,0,0,1-1.634,3.358c-1.522,1.945-9.276,3.378-9.276,3.378Z" fill="#f28f8f"/>
        <path id="Path_72" data-name="Path 72" d="M352.773,154.934a1.194,1.194,0,1,0,1.193-1.243,1.212,1.212,0,0,0-1.193,1.243" fill="#263238"/>
        <path id="Path_73" data-name="Path 73" d="M354.038,150.431l2.552,1.408a1.529,1.529,0,0,0-.6-2.031,1.422,1.422,0,0,0-1.957.623" fill="#263238"/>
        <path id="Path_74" data-name="Path 74" d="M351.881,163.174l-2.723,1.022a1.428,1.428,0,0,0,1.849.9,1.522,1.522,0,0,0,.874-1.924" fill="#f28f8f"/>
        <path id="Path_75" data-name="Path 75" d="M342.136,151.424l2.327-1.792a1.41,1.41,0,0,0-2.023-.311,1.544,1.544,0,0,0-.3,2.1" fill="#263238"/>
        <path id="Path_76" data-name="Path 76" d="M342.852,154.6a1.194,1.194,0,1,0,1.193-1.243,1.212,1.212,0,0,0-1.193,1.243" fill="#263238"/>
        <path id="Path_77" data-name="Path 77" d="M348.929,153.463l-.392,7.173-3.745-1.276Z" fill="#f28f8f"/>
        <path id="Path_78" data-name="Path 78" d="M367.491,341.157v-1.093c-.731.319-2.43,6.8-5.461,9.564-2.41,2.2-5.7,4.737-6.533,7.187-.87,2.548,4.578,3.955,6.829,3.557,2.616-.463,7.15-2.305,8.289-4.013s1.67-4.226,2.6-5.478,3.056-2.648,3.557-4.1c.274-.795-.052-2.538-.438-4.01-.354-1.351-.738-2.836-1.2-2.71,0,.165,0,.833,0,.833a6.039,6.039,0,0,1-3.82,1.291c-1.118.043-3.829-.178-3.82-1.031" fill="#263238"/>
        <path id="Path_79" data-name="Path 79" d="M340.926,333.685c-.4.014-.72.573-1.6,1.52a16.668,16.668,0,0,1-4.494,3.234c-2.86,1.432-8.422,3.635-10.939,4.769-1.573.708-1.5,2.608.126,3.689s5.55,1.86,10.263.806c2.567-.575,5.908-2.945,8.023-2.817s6.073.1,7.635-.979.936-3.375.495-5.35c-.481-2.155-1.171-5.453-1.884-5.306l.023.678c-.919,1.391-5.6,1.959-7.613.935Z" fill="#263238"/>
        <path id="Path_80" data-name="Path 80" d="M355.619,247.691a28.281,28.281,0,0,1-10.638-6.1s2.052,3.844,8.157,7.421l-1.757,34.4Z" fill="#263238"/>
        <path id="Path_81" data-name="Path 81" d="M323.179,300.651l-12.862,37.528a1.207,1.207,0,0,1-2.286-.007l-12.7-37.827Z" fill="#ffa8a7"/>
        <path id="Path_82" data-name="Path 82" d="M308.031,338.172a1.207,1.207,0,0,0,2.286.007l2.511-7.327a6.683,6.683,0,0,1-6.952-.386l-.561-.386Z" fill="#263238"/>
        <path id="Path_83" data-name="Path 83" d="M295.822,133l-.008,3.672-.029,4.431-.453,159.241c2.942,3.365,7.3,5.073,11.724,5.518,6.733.7,13.638-1.507,16.105-5.21l.448-159.145.023-8.47c-.319,5.483-28.055,5.467-27.81-.037" fill="#27debf"/>
        <path id="Path_84" data-name="Path 84" d="M295.738,146.976l-.009,8.2c-.081,2.377,4.982,3.911,10.828,4.449,7.762.735,16.9-1.368,17.014-4.517l.017-6.044-.032-2.161c-.114,3.149-9.253,5.259-17.015,4.524-5.6-.523-10.5-1.978-10.781-4.2v-.024a.5.5,0,0,1-.021-.232" fill="#ebebeb"/>
        <path id="Path_85" data-name="Path 85" d="M295.754,149.023c-.2,5.52,27.623,5.45,27.823-.07l.035-8.208c-.2,5.52-28.02,5.589-27.82.07Z" fill="#27debf"/>
        <path id="Path_86" data-name="Path 86" d="M295.822,133l-.037,8.1c-.236,5.418,26.612,5.577,27.824.4a1.149,1.149,0,0,0,.049-.308l-.026-8.162c-.319,5.483-28.055,5.467-27.81-.037" fill="#ebebeb"/>
        <g id="Group_38" data-name="Group 38" opacity="0.1">
          <g id="Group_37" data-name="Group 37">
            <g id="Group_36" data-name="Group 36" clip-path="url(#clip-path-16)">
              <path id="Path_87" data-name="Path 87" d="M323.609,141.5l.023-8.47c-.144,2.478-5.824,4.323-12.121,4.551l-.449,168.4-.745,32.191,12.862-37.528h-.019Z"/>
            </g>
          </g>
        </g>
        <path id="Path_88" data-name="Path 88" d="M295.956,98.616,295.822,133c-.108,2.354,4.9,3.9,10.694,4.467,7.763.76,16.94-1.29,17.116-4.43.011-.012.011-.012.01-.037l.122-34.495c0-6.863-13.916-8.585-22.229-5.726-3.117,1.048-5.334,2.955-5.579,5.84" fill="#f28f8f"/>
        <path id="Path_89" data-name="Path 89" d="M386.26,239.583a85.783,85.783,0,0,1-1.377,10.326c-2.287,8.825-5.22,11.469-9.126,11.73-6.235.416-6.275-1.918-3.476-5.935a19.873,19.873,0,0,0,2.782-5.737,14.961,14.961,0,0,1-2.994,1.929,2.141,2.141,0,0,1-2.809-.761c-.2-.42.876-.843,2.071-2.3,1.525-1.861,2.306-3.342,4.4-4.885A4.346,4.346,0,0,0,377,241.378c.317-1.256.534-21.267-.6-25.409l-5.363-19.244c-4.361-3-9.008-17.807-2.376-20.956,6.226.7,10.763,8.84,17.549,33.978,1.2,4.45.747,22.991.049,29.836" fill="#ffa8a7"/>
        <path id="Path_90" data-name="Path 90" d="M367.29,175.4a8.008,8.008,0,0,0-2.694,6.042c-.176,4.194,1.79,10.23,2.98,14.014s3.664,10.625,3.664,10.625,10.244-1.175,12.578-7.188c0,0-4.8-15.528-9.417-20.582a8.658,8.658,0,0,0-7.111-2.911" fill="#e0e0e0"/>
        <path id="Path_91" data-name="Path 91" d="M301.683,179.163s2.5-1.987,7.246-1.207c2.3.378,1.419,9.075-5.973,11.5-4.81,1.576-5.788.765-7.34,4.722,0,0-2.9-.6-2.2-5.026a24.715,24.715,0,0,1,5.861-12.263c2.12-2.5,2.261-4.608,3.3-3.9,1.176.806.456,2.872.456,2.872Z" fill="#ffa8a7"/>
      </g>
    </g>
  </g>
</svg>
